<?xml version="1.0" standalone="no"?>
<!DOCTYPE svg PUBLIC "-//W3C//DTD SVG 20010904//EN"
 "http://www.w3.org/TR/2001/REC-SVG-20010904/DTD/svg10.dtd">
<svg version="1.0" xmlns="http://www.w3.org/2000/svg"
 width="800.000000pt" height="800.000000pt" viewBox="0 0 800.000000 800.000000"
 preserveAspectRatio="xMidYMid meet">
<metadata>
Created by potrace 1.14, written by Peter Selinger 2001-2017
</metadata>
<g transform="translate(0.000000,800.000000) scale(0.100000,-0.100000)"
fill="#000000" stroke="none">
<path d="M0 7072 c0 -921 0 -928 20 -928 11 0 20 4 20 8 0 4 6 8 13 8 7 0 13
12 12 28 0 24 3 27 32 24 24 -2 43 6 79 34 27 20 50 31 52 25 2 -6 8 -11 13
-11 5 0 5 10 0 23 -10 28 -4 47 17 47 10 0 25 14 35 31 15 27 21 30 45 25 51
-12 55 -11 66 23 15 43 43 64 79 57 15 -3 27 -1 27 4 0 5 6 15 13 22 7 7 18
25 24 41 13 28 41 35 61 15 9 -9 12 -9 12 3 0 19 58 75 86 83 29 9 54 -3 54
-25 0 -27 12 -24 45 11 55 57 127 73 138 30 3 -10 -2 -28 -10 -39 -19 -28 -9
-26 30 3 47 36 117 66 155 66 38 0 40 -9 8 -47 l-25 -29 30 -11 c36 -14 36
-24 0 -65 l-29 -33 24 -1 c61 -4 70 -31 27 -76 l-27 -28 39 2 c34 3 40 0 43
-18 2 -15 -13 -36 -51 -71 l-55 -50 37 10 c37 10 71 5 71 -10 0 -4 -16 -26
-36 -48 -57 -63 -60 -75 -24 -75 28 0 30 -3 30 -36 0 -26 -10 -51 -35 -85 -39
-55 -45 -71 -16 -45 25 23 57 17 53 -9 -7 -40 -46 -88 -86 -106 -35 -15 -252
-142 -264 -153 -18 -19 98 36 170 79 50 30 97 55 105 55 22 0 15 -39 -12 -65
-16 -14 -22 -26 -15 -30 19 -12 10 -52 -20 -90 -36 -46 -37 -48 -5 -33 53 24
72 -34 33 -103 -40 -72 -148 -136 -323 -192 -105 -34 -354 -124 -382 -139 -13
-6 -36 -11 -52 -11 -20 0 -28 -4 -24 -14 3 -7 1 -13 -5 -13 -6 0 -13 6 -15 13
-3 7 -6 5 -6 -6 -1 -10 -13 -22 -27 -27 -15 -6 -22 -14 -18 -22 4 -7 3 -8 -4
-4 -7 4 -12 2 -12 -4 0 -6 -5 -8 -10 -5 -6 4 -8 10 -6 14 3 4 -11 7 -29 7 -19
-1 -35 -4 -35 -8 0 -5 -5 -8 -11 -8 -5 0 -8 4 -5 9 3 5 -1 14 -9 21 -8 7 -15
9 -15 5 0 -15 -42 41 -66 88 -13 26 -27 47 -29 47 -3 0 -5 -30 -4 -67 0 -47 3
-62 9 -48 8 19 9 19 9 -2 1 -13 6 -23 13 -23 6 0 2 -8 -10 -18 -21 -18 -21
-19 -22 -958 l-1 -940 26 -2 c27 -2 32 7 13 26 -18 18 -1 27 27 12 13 -7 24
-16 23 -19 -2 -22 7 -26 51 -23 46 4 49 2 44 -17 -4 -16 -11 -19 -29 -15 -15
4 -24 2 -24 -5 0 -6 6 -11 13 -12 15 0 77 -76 77 -94 0 -7 -11 -16 -24 -19
-23 -6 -42 -44 -28 -58 4 -3 77 -20 162 -37 85 -17 209 -42 275 -56 66 -14
158 -32 205 -40 111 -19 121 -22 161 -33 19 -5 48 -9 66 -8 17 1 29 -2 27 -5
-3 -5 184 -68 284 -95 7 -2 11 -8 8 -13 -3 -5 3 -7 14 -4 12 3 20 0 20 -6 0
-7 4 -10 9 -7 15 10 41 -5 42 -23 0 -10 2 -11 6 -3 2 6 14 12 24 12 11 0 17
-4 14 -10 -3 -5 -2 -10 4 -10 5 0 11 4 13 9 4 11 108 -8 108 -20 0 -5 7 -6 15
-3 8 4 15 2 15 -4 0 -6 9 -8 20 -5 11 3 20 1 20 -3 0 -8 44 -15 108 -17 12 -1
22 -5 22 -11 0 -5 2 -7 6 -4 3 3 22 2 42 -3 20 -6 48 -12 62 -15 14 -2 36 -7
50 -9 14 -3 39 -8 55 -11 17 -2 37 -7 45 -9 8 -3 33 -7 55 -10 22 -3 65 -10
95 -16 65 -11 148 -22 173 -23 9 0 17 -4 17 -8 0 -5 12 -8 28 -7 15 0 41 -2
57 -6 17 -3 37 -6 45 -7 8 0 17 -4 20 -9 7 -10 62 -13 84 -4 11 5 39 3 65 -4
70 -19 91 -22 103 -15 7 4 -46 18 -118 31 -152 27 -629 122 -794 158 -63 13
-171 36 -240 51 -239 51 -537 163 -710 267 -181 109 -345 227 -478 345 -69 61
-87 73 -108 68 -21 -6 -24 -3 -24 20 0 18 -20 48 -69 101 -92 100 -172 212
-221 311 -34 69 -40 91 -39 139 l2 58 6 -55 c8 -66 33 -124 96 -222 63 -96
220 -288 228 -277 2 2 11 16 20 31 34 54 127 107 157 88 17 -10 -1 -43 -54
-99 -32 -35 -35 -40 -13 -26 15 10 39 32 52 49 14 17 25 26 25 19 0 -6 -25
-39 -57 -73 -31 -33 -52 -64 -47 -69 5 -4 41 -34 79 -67 268 -231 585 -417
862 -506 102 -33 130 -39 144 -29 10 6 40 11 65 11 45 0 46 0 39 27 -7 31 -21
43 -47 43 -10 0 -18 5 -18 10 0 11 10 13 55 11 23 -2 27 0 15 8 -27 18 5 34
70 35 l61 1 -45 43 c-25 24 -46 45 -46 48 0 13 32 1 60 -22 l31 -27 15 22 c19
27 48 27 65 1 12 -18 18 -19 46 -10 40 14 95 9 101 -9 3 -10 -2 -12 -23 -9
-23 5 -36 -2 -69 -32 l-40 -38 72 -21 c53 -16 81 -31 108 -59 31 -32 33 -38
19 -48 -28 -20 -97 -25 -140 -9 -22 8 -47 14 -55 15 -8 0 -32 9 -52 20 -21 11
-45 17 -54 13 -13 -5 -15 -3 -9 7 6 10 4 12 -9 7 -9 -4 -33 0 -52 8 -32 13
-34 13 -34 -6 0 -11 5 -17 10 -14 9 5 10 1 10 -32 0 -5 -27 -7 -60 -6 -33 0
-60 0 -60 -2 0 -9 160 -54 227 -64 39 -6 79 -14 89 -18 14 -5 16 -2 12 15 -4
15 -2 22 8 22 8 0 14 -9 14 -19 0 -13 7 -19 23 -18 28 1 50 -6 58 -16 4 -5 15
-7 25 -5 14 3 7 10 -29 28 -27 14 -47 31 -46 39 0 11 2 12 6 4 2 -7 12 -13 22
-13 23 0 102 -52 98 -65 -2 -6 55 -22 132 -37 214 -42 502 -96 551 -103 25 -4
63 -10 85 -15 55 -13 59 -12 44 7 -12 15 -12 16 3 10 12 -4 15 -2 11 9 -3 7
-12 14 -20 14 -8 0 -11 5 -8 10 4 6 -1 22 -10 37 -9 14 -15 36 -12 49 3 15 -1
25 -12 28 -17 6 97 -1 191 -11 l57 -5 3 -84 c2 -56 -1 -83 -7 -80 -6 2 -12 -5
-12 -15 -1 -10 4 -19 11 -19 7 0 21 -10 32 -21 19 -21 19 -21 -1 -17 -11 2
-19 10 -18 16 4 18 -144 24 -151 5 -3 -8 4 -9 27 -2 40 11 40 11 31 -3 -5 -9
-2 -9 9 1 11 9 17 10 17 2 0 -6 11 -11 25 -11 14 0 25 -4 25 -9 0 -13 -16 -22
-24 -14 -4 4 -12 8 -19 9 -7 1 -24 4 -39 7 -16 3 -28 2 -28 -3 0 -6 37 -21 62
-24 15 -2 20 -16 5 -16 -9 0 -19 -4 -22 -10 -8 -13 48 -9 56 3 4 6 12 0 18
-12 10 -18 15 -19 33 -10 11 6 18 7 15 2 -3 -5 3 -17 14 -26 20 -18 18 -37 -4
-37 -7 0 -6 4 3 10 11 7 8 11 -15 20 -17 6 -37 13 -45 16 -27 10 -80 14 -80 7
0 -5 11 -9 25 -9 40 -3 55 -12 55 -35 0 -17 5 -20 25 -17 14 3 33 -1 42 -8 16
-12 16 -12 -4 -7 -26 6 -29 -4 -8 -31 8 -10 12 -23 9 -27 -7 -12 7 -11 26 1
13 8 12 10 -2 10 -10 0 -18 7 -18 16 0 11 8 14 32 10 17 -2 34 -9 37 -13 3 -5
16 -9 28 -9 18 0 22 5 18 21 -3 11 1 7 9 -9 8 -18 16 -24 20 -17 9 14 36 14
36 0 0 -6 -6 -9 -14 -6 -8 3 -23 -3 -34 -14 -12 -11 -23 -15 -27 -9 -3 6 -1
10 5 10 6 0 8 5 5 10 -4 6 -26 -1 -57 -18 -53 -28 -72 -52 -44 -52 9 0 15 -3
15 -7 -1 -5 -1 -17 0 -28 1 -18 2 -18 17 3 8 12 19 20 24 17 4 -3 10 2 14 10
3 9 14 13 28 11 13 -3 29 -5 36 -5 6 -1 12 -6 12 -12 0 -7 -12 -9 -32 -7 -29
5 -30 4 -12 -9 10 -8 20 -18 20 -23 1 -6 2 -15 3 -21 0 -5 6 -7 13 -3 8 5 9 2
5 -9 -4 -11 -1 -17 9 -17 8 0 26 -7 39 -16 14 -9 25 -12 25 -6 0 6 -5 14 -12
18 -8 5 -6 10 8 16 15 6 13 7 -8 3 -24 -5 -26 -3 -22 25 3 17 1 30 -5 30 -6 0
-11 -5 -11 -12 0 -6 -2 -9 -5 -6 -3 3 -3 12 0 20 8 21 43 11 41 -10 -1 -12 8
-18 32 -20 28 -3 31 -6 22 -23 -8 -13 -7 -19 0 -19 6 0 13 7 16 15 7 17 34 21
34 5 0 -5 4 -10 10 -10 5 0 7 7 3 16 -5 14 -3 15 15 5 12 -7 22 -9 22 -6 0 3
10 1 21 -6 21 -11 21 -11 3 -29 -21 -19 -252 -113 -322 -130 -24 -6 -42 -16
-40 -22 2 -6 39 -29 82 -51 66 -34 75 -42 63 -54 -12 -12 -26 -9 -101 18 -48
17 -100 42 -117 56 -29 25 -29 25 -29 134 0 89 -3 111 -15 116 -23 8 -47 -18
-85 -97 -30 -61 -42 -75 -87 -100 l-52 -30 -73 16 c-40 8 -87 20 -104 25 -47
14 -94 11 -152 -11 -70 -27 -106 -26 -129 3 -20 26 -20 26 -110 -9 -34 -14
-84 -29 -110 -34 -26 -5 -59 -13 -72 -16 -38 -11 -21 17 19 30 61 20 46 33
-52 42 -51 4 -114 8 -140 9 -81 2 -94 45 -15 45 24 0 53 7 66 16 l23 16 -33
20 -33 20 39 32 c32 27 37 36 31 59 -3 15 -13 27 -21 27 -9 0 -13 9 -12 27 2
23 -2 27 -28 27 -23 1 -31 6 -33 24 -4 25 9 28 41 10 12 -7 33 -13 47 -13 22
0 25 -4 24 -33 -1 -17 3 -33 10 -34 6 0 16 -2 21 -2 6 -1 24 -7 40 -14 38 -15
69 -10 73 11 2 10 -2 17 -8 17 -6 0 -9 8 -6 18 6 19 -1 22 -52 22 -28 0 -45
40 -37 84 4 24 3 27 -4 11 -8 -18 -10 -18 -12 -2 -1 9 -2 23 -3 30 -1 6 3 15
9 19 8 7 -25 13 -47 9 -5 0 -8 6 -8 14 0 9 -31 29 -75 50 -41 20 -77 40 -80
45 -8 13 -38 7 -96 -18 -26 -11 -67 -23 -90 -26 -24 -3 -63 -8 -86 -12 -39 -6
-45 -4 -73 26 -16 18 -30 40 -30 50 0 11 -5 22 -11 26 -6 3 -9 18 -6 33 3 15
3 31 -1 36 -11 15 -32 16 -32 2 0 -7 -8 -20 -17 -28 -53 -48 -65 -81 -46 -129
12 -30 8 -66 -11 -95 -8 -12 -68 -60 -133 -107 -66 -48 -144 -113 -172 -146
-29 -33 -63 -62 -76 -65 -21 -3 -24 0 -27 27 -2 17 5 46 16 64 18 32 18 33 0
47 -11 7 -31 16 -47 19 -31 6 -38 39 -11 54 15 8 15 11 -3 29 -14 14 -29 19
-47 16 -31 -6 -33 -23 -6 -48 44 -40 -24 -45 -80 -5 -33 24 -51 25 -88 6 -15
-7 -47 -17 -72 -21 -25 -4 -50 -12 -57 -17 -10 -8 -132 -38 -156 -38 -4 0 -3
9 3 20 6 11 20 20 31 20 18 0 20 4 14 30 -6 26 -4 30 14 30 31 0 25 26 -9 40
-17 7 -35 21 -40 31 -6 10 -20 19 -32 21 -18 2 -23 10 -25 41 -1 20 3 37 8 37
20 0 50 -21 44 -31 -4 -5 -1 -9 4 -9 6 0 11 -11 11 -25 0 -28 25 -44 42 -27 8
8 7 13 -4 17 -10 4 -13 15 -10 31 3 17 0 24 -12 24 -27 0 -18 20 14 32 24 8
29 14 24 30 -7 23 9 38 43 38 12 0 23 -8 26 -17 4 -16 5 -16 6 1 1 12 6 16 16
12 8 -3 23 -9 32 -13 13 -5 15 -3 9 12 -4 11 -2 22 6 26 25 16 83 -36 83 -75
0 -17 9 -20 68 -22 37 -2 67 1 67 5 0 7 -51 33 -72 37 -5 1 -10 3 -13 4 -3 1
-9 4 -15 5 -5 1 -13 4 -17 5 -5 1 -11 2 -15 1 -5 0 -8 6 -8 15 0 9 -10 24 -22
34 l-22 17 25 13 c13 8 26 12 29 11 2 -1 6 2 8 7 3 11 -115 5 -173 -9 -22 -5
-53 -12 -69 -15 -26 -5 -95 -24 -217 -59 -101 -29 -138 -69 -89 -95 32 -17 26
-59 -10 -73 -17 -6 -30 -17 -30 -24 0 -7 -5 -13 -10 -13 -6 0 -9 14 -8 31 2
24 -4 36 -29 56 l-33 26 0 -1182 0 -1181 4000 0 4000 0 0 854 c0 846 0 855
-20 861 -21 7 -28 25 -10 25 6 0 10 -4 10 -10 0 -5 5 -10 10 -10 6 0 10 6 10
13 0 12 -84 57 -106 57 -6 0 -30 9 -53 21 -24 11 -51 21 -62 22 -10 1 -19 4
-19 8 0 12 -40 17 -47 7 -3 -7 -1 -8 5 -4 7 4 12 3 12 -1 0 -5 22 -16 50 -26
34 -12 50 -23 49 -35 0 -10 -3 -12 -6 -4 -2 6 -12 12 -21 12 -18 0 -170 55
-179 64 -3 3 2 8 11 12 13 5 11 11 -16 34 l-32 28 17 44 c9 24 17 64 17 89 0
55 -21 78 -78 86 -44 6 -60 -7 -112 -87 -47 -73 -47 -72 -109 -67 -54 5 -69 8
-101 19 -51 19 -105 28 -160 28 -68 0 -75 -5 -21 -15 58 -10 186 -47 195 -56
6 -5 19 -9 30 -10 15 0 13 -3 -8 -10 -22 -6 -59 -1 -145 21 -64 16 -149 32
-189 36 -55 5 -75 11 -82 25 -15 27 -75 42 -151 37 -53 -4 -78 -12 -120 -38
-46 -28 -59 -32 -100 -27 -40 5 -49 3 -61 -14 -12 -19 -14 -17 -38 28 -22 43
-55 83 -68 83 -2 0 -2 -11 0 -25 5 -25 -5 -34 -17 -15 -3 6 -11 10 -16 10 -6
0 -7 -4 -4 -10 3 -5 1 -10 -4 -10 -6 0 -11 4 -11 9 0 6 -11 22 -25 37 -14 15
-25 22 -25 16 0 -6 -7 -9 -15 -6 -10 4 -15 0 -15 -11 0 -9 -5 -13 -11 -10 -6
4 -8 13 -5 21 3 8 1 14 -5 14 -5 0 -12 -6 -15 -13 -7 -19 -42 -19 -40 1 1 10
-7 17 -19 17 -13 0 -19 -6 -17 -18 2 -11 -4 -17 -15 -18 -15 0 -15 -2 -3 -7
19 -9 22 -42 5 -42 -8 0 -17 10 -21 23 -12 35 -13 47 -3 47 5 0 3 11 -3 25 -8
17 -14 22 -19 14 -4 -7 -16 -9 -28 -6 -12 3 -24 1 -27 -4 -7 -11 -46 -8 -55 4
-7 10 -59 -9 -59 -23 0 -5 -4 -10 -10 -10 -5 0 -10 6 -10 13 0 7 -15 13 -36
14 -19 1 -41 6 -47 12 -7 5 -29 11 -50 13 l-37 3 27 40 c36 54 63 127 63 175
l0 41 48 -6 c255 -32 250 -31 289 -60 23 -18 31 -21 21 -9 -39 45 -5 47 54 4
49 -36 95 -38 90 -5 -2 11 -16 36 -32 56 -28 36 -29 37 -10 54 11 10 26 14 37
11 14 -4 25 2 41 23 18 25 18 28 4 24 -15 -4 -54 23 -63 44 -2 4 -22 20 -45
36 -22 15 -51 37 -63 48 -31 29 -36 18 -12 -22 28 -46 26 -57 -4 -21 -14 17
-25 35 -25 41 0 6 -4 11 -10 11 -5 0 -15 10 -21 23 -9 18 -9 20 2 9 19 -17 24
-15 27 11 2 26 -35 124 -56 150 -14 15 -13 17 1 17 21 0 22 23 2 40 -8 7 -15
18 -15 25 0 13 -61 85 -72 85 -3 0 -4 -9 -1 -20 8 -30 -4 -24 -23 11 -41 81
-179 255 -281 357 -63 61 -118 112 -124 112 -6 0 -7 5 -4 10 3 6 1 10 -4 10
-6 0 -28 15 -48 34 -21 18 -53 41 -70 50 -18 9 -49 28 -70 42 -41 28 -168 94
-180 94 -10 0 -105 31 -117 38 -6 3 -19 7 -30 8 -12 1 -86 16 -166 33 -172 37
-340 42 -478 16 -133 -25 -132 -31 5 -29 l128 2 -100 -8 c-112 -9 -198 -23
-275 -46 -71 -21 -59 -26 20 -9 36 8 110 16 165 19 55 2 84 2 65 0 -112 -15
-264 -49 -325 -73 -86 -33 -126 -60 -228 -153 -45 -40 -78 -65 -74 -56 4 13 1
18 -11 18 -15 0 -15 2 -2 10 11 7 11 10 2 10 -7 0 -18 -5 -25 -10 -46 -39 -61
-50 -69 -50 -5 0 -7 -4 -3 -9 3 -5 0 -13 -6 -17 -8 -4 -9 -3 -5 4 12 19 -2 14
-26 -10 -13 -13 -22 -27 -20 -32 2 -5 -5 -3 -14 5 -12 9 -15 9 -10 2 7 -12 3
-15 -26 -17 -7 -1 -20 -8 -29 -17 -9 -9 -23 -19 -30 -21 -8 -3 -10 -9 -6 -14
4 -5 12 -2 16 5 6 9 11 10 15 2 8 -12 -48 -43 -59 -33 -5 4 -5 1 -1 -5 4 -8 1
-13 -8 -13 -8 0 -21 -6 -28 -12 -7 -7 -26 -20 -41 -28 -16 -8 -39 -24 -52 -36
-13 -12 -26 -20 -29 -18 -4 2 -3 0 1 -5 5 -5 40 -5 83 1 41 5 93 7 116 4 45
-6 99 -24 92 -31 -2 -2 -47 -9 -99 -15 -208 -22 -311 -68 -489 -219 -95 -81
-281 -213 -289 -205 -9 8 35 63 97 123 50 47 56 55 22 30 -24 -19 -67 -53 -94
-76 -50 -43 -81 -54 -89 -30 -2 7 -11 -1 -20 -18 -11 -21 -16 -25 -17 -12 0
10 -7 20 -15 23 -25 10 -17 20 25 34 22 7 38 15 36 18 -3 2 7 14 21 26 25 21
25 22 10 71 -21 72 -79 194 -114 243 -17 23 -50 58 -74 78 -38 32 -48 35 -81
30 -21 -4 -48 -2 -58 4 -22 12 -26 50 -8 68 16 16 63 15 80 0 7 -7 29 -25 48
-40 57 -43 84 -70 123 -122 38 -51 52 -86 17 -45 -29 35 -25 22 20 -61 22 -41
40 -70 40 -63 0 7 -9 29 -20 49 -12 20 -19 38 -16 41 5 6 16 -13 50 -90 13
-31 21 -57 16 -57 -5 0 -12 9 -15 21 -4 11 -9 19 -11 17 -2 -3 5 -29 16 -59
10 -30 19 -46 20 -37 0 9 4 18 8 20 17 7 130 155 163 213 23 41 35 54 37 42 2
-9 -15 -48 -38 -85 -37 -60 -38 -63 -10 -32 42 47 55 64 56 70 0 3 4 13 8 23
5 9 6 23 3 30 -2 6 7 21 22 31 l26 20 -19 -22 c-11 -12 -17 -24 -15 -26 3 -3
36 27 74 67 39 39 61 65 51 57 -15 -12 -20 -12 -24 -2 -3 10 -7 10 -20 0 -14
-10 -14 -9 1 8 9 11 14 23 11 26 -3 4 -1 16 5 27 9 17 9 20 -3 15 -24 -9 -6
36 18 46 11 5 16 9 9 9 -23 2 6 51 37 64 12 4 11 6 -2 6 -17 1 -17 2 0 19 9
10 19 17 21 16 8 -6 43 35 37 44 -5 9 16 35 25 29 2 -1 0 3 -6 8 -5 6 -11 18
-11 28 -1 10 0 16 3 13 3 -2 25 4 50 15 28 12 42 14 36 7 -6 -8 -7 -21 -2 -33
5 -14 8 -16 9 -5 2 8 2 18 1 23 0 4 3 7 7 7 5 0 17 7 28 16 18 14 18 15 -6 4
-24 -11 -24 -10 -6 4 11 9 24 16 29 16 4 0 5 4 2 10 -3 6 1 7 10 4 11 -5 14
-2 9 12 -5 15 -4 16 4 4 8 -10 7 -19 -1 -30 -6 -8 -7 -12 -3 -8 5 4 20 -4 33
-18 12 -14 23 -20 23 -13 0 8 4 8 15 -1 9 -8 15 -8 15 -2 0 6 -6 13 -12 16 -7
4 -3 4 9 2 13 -2 24 2 27 11 3 8 10 12 15 9 5 -4 8 2 7 11 -2 10 6 24 18 31
21 13 21 13 -1 7 -17 -5 -23 -2 -23 9 0 10 -6 13 -17 9 -12 -5 -14 -3 -8 8 8
12 6 12 -8 0 -21 -17 -23 2 -2 22 16 17 10 28 -11 20 -8 -3 -14 0 -14 5 0 6 9
9 21 7 13 -3 19 0 16 8 -2 7 -9 12 -14 12 -6 0 -15 3 -19 8 -4 4 -2 7 6 7 10
0 10 4 -1 17 -8 9 -9 14 -3 10 7 -4 10 5 8 26 -1 18 -3 32 -4 32 -1 0 -3 8 -5
18 -2 9 1 17 6 17 5 0 9 5 9 11 0 5 -4 8 -8 5 -5 -3 -9 1 -9 9 0 8 4 15 9 15
5 0 6 11 4 25 -3 14 0 25 6 25 6 0 6 6 -2 15 -7 8 -10 15 -6 15 3 0 1 11 -4
25 -6 17 -6 25 1 25 15 0 -21 56 -37 58 -8 1 -21 3 -29 4 -8 1 -15 4 -15 8 0
3 -9 6 -21 7 -12 1 -31 9 -43 18 -11 8 -39 27 -61 41 -53 35 -105 85 -105 101
0 7 -4 13 -8 13 -12 0 -35 86 -35 133 -2 149 58 257 168 306 l45 20 -21 38
c-12 21 -25 43 -30 49 -5 6 -5 14 -1 18 4 4 1 6 -6 4 -8 -2 -26 30 -47 85 -40
101 -44 155 -19 249 8 33 13 62 11 65 -3 2 -35 -12 -73 -32 -60 -31 -175 -61
-193 -51 -3 2 -32 7 -63 10 -32 3 -69 11 -83 16 -14 5 -25 7 -25 4 0 -3 -11 7
-25 22 -14 15 -25 23 -25 18 0 -19 -32 40 -51 92 -21 63 -25 154 -8 186 21 40
183 187 207 188 6 0 12 4 12 8 0 5 11 14 24 20 13 6 24 17 23 24 -1 31 4 49
12 44 5 -4 7 3 4 14 -4 13 1 26 12 34 10 7 15 19 12 27 -4 10 -6 9 -6 -3 -1
-11 -8 -18 -18 -17 -11 0 -13 3 -5 6 6 2 12 9 12 15 0 6 -7 7 -16 4 -8 -3 -12
-2 -9 4 3 6 13 10 21 10 11 0 12 4 5 18 -12 22 2 47 20 38 8 -4 6 -1 -3 7 -21
17 -24 31 -4 24 10 -4 12 0 8 15 -4 17 -2 20 12 15 11 -4 19 -1 23 10 4 9 1
19 -5 21 -7 2 -12 8 -12 13 0 6 4 8 9 5 9 -6 47 44 43 57 -1 4 2 7 7 7 5 0 14
15 20 33 11 34 24 52 74 109 15 17 27 40 27 50 0 20 -27 78 -36 78 -3 0 -2 -5
2 -12 4 -7 3 -8 -4 -4 -7 4 -12 13 -12 19 0 7 -8 21 -17 32 -13 16 -15 17 -10
3 4 -10 4 -18 1 -18 -3 0 -10 14 -16 30 -5 17 -19 35 -29 41 -11 5 -17 14 -14
20 4 5 -2 12 -12 16 -10 4 -21 11 -25 17 -9 13 -80 -20 -110 -51 -38 -41 -178
-102 -272 -119 -39 -7 -75 -27 -111 -62 -33 -32 -90 -123 -84 -134 2 -4 -5
-14 -16 -23 -11 -9 -13 -13 -5 -9 8 4 3 -6 -13 -23 -15 -16 -27 -35 -27 -43 0
-7 -3 -10 -7 -7 -3 4 -12 -2 -20 -13 -8 -11 -21 -20 -29 -20 -8 0 -14 -5 -14
-11 0 -5 -4 -7 -10 -4 -5 3 -10 1 -10 -5 0 -7 -8 -9 -19 -5 -18 5 -81 -42 -81
-62 0 -17 -42 -45 -61 -40 -10 3 -30 -4 -44 -15 -23 -18 -24 -18 -18 -1 5 15
3 16 -8 6 -16 -16 -29 -17 -29 -2 0 5 5 7 10 4 6 -3 10 -2 10 3 0 6 -11 12
-24 16 -25 6 -83 67 -130 136 -31 45 -124 98 -147 84 -8 -4 -9 -3 -5 5 5 7 -3
23 -18 38 -14 14 -23 29 -20 34 3 5 -1 9 -8 9 -9 0 -9 3 2 10 13 9 13 10 0 10
-13 0 -13 1 0 10 10 7 11 10 2 10 -8 0 -11 11 -9 35 2 19 1 32 -3 30 -5 -3
-10 2 -13 9 -3 8 -1 16 5 18 6 2 11 19 13 38 1 19 5 46 9 59 6 16 5 21 -3 17
-8 -5 -8 0 0 20 7 20 7 42 -2 77 -6 27 -9 67 -6 89 3 23 1 68 -5 102 -10 59
-14 64 -87 131 -144 133 -204 196 -194 206 6 6 24 3 48 -7 36 -15 146 -17 159
-3 2 2 -1 53 -6 113 -7 76 -7 116 1 132 7 15 7 40 2 69 -12 64 -65 114 -129
119 -26 2 -56 7 -67 11 -67 23 -121 54 -144 84 -45 60 -37 218 13 261 9 7 16
16 16 21 0 5 -260 9 -595 9 l-595 0 0 -928z m1438 -779 c2 -9 -11 -13 -47 -13
-48 0 -61 7 -44 24 12 11 86 2 91 -11z m227 -117 c17 -12 12 -14 -46 -14 -37
0 -80 -6 -101 -16 -53 -23 -58 -1 -6 23 51 23 126 27 153 7z m325 -227 c11
-19 10 -20 -10 -9 -11 6 -18 15 -15 21 9 13 13 11 25 -12z m-79 -8 c-8 -5 -10
-14 -6 -22 6 -11 5 -11 -5 -2 -14 12 -6 33 13 33 8 0 7 -3 -2 -9z m49 -21 c0
-3 -5 -12 -10 -20 -8 -13 -10 -13 -10 2 0 9 -6 18 -12 21 -7 3 -3 4 10 4 12
-1 22 -4 22 -7z m-444 -221 c39 -24 106 -98 98 -110 -2 -4 -23 12 -45 36 -22
24 -55 50 -74 60 -19 9 -35 20 -35 25 0 16 20 12 56 -11z m-466 -302 c0 -7
-24 -21 -52 -32 l-53 -21 -5 -61 c-3 -38 -12 -68 -23 -80 -16 -19 -16 -20 8
-31 14 -6 25 -17 25 -23 0 -7 -18 -36 -39 -64 -30 -40 -80 -80 -206 -164 -91
-62 -180 -114 -196 -118 -23 -4 -27 -8 -17 -15 10 -7 8 -8 -5 -4 -12 4 -29 -7
-55 -33 -20 -21 -50 -46 -67 -56 -24 -15 -21 -10 13 22 38 37 57 83 32 83 -5
0 -7 -7 -4 -15 3 -8 -1 -21 -9 -30 -22 -21 -30 -19 -16 6 14 26 -4 50 -23 31
-8 -8 -17 -8 -31 -1 -14 8 -18 8 -13 0 7 -11 -12 -16 -43 -12 -8 2 -10 -3 -6
-11 3 -7 0 -5 -8 5 -17 20 -29 22 -26 5 3 -28 -1 -49 -10 -44 -5 3 -7 15 -4
26 3 13 0 20 -8 20 -11 0 -11 2 1 10 13 9 13 10 0 10 -21 0 -44 37 -27 43 9 4
9 6 0 6 -7 1 -20 -11 -28 -26 -9 -16 -13 -19 -9 -8 3 11 7 26 7 33 0 6 4 12 8
12 5 0 5 7 2 17 -4 11 -3 14 5 9 13 -8 15 1 12 52 -1 18 3 32 10 32 6 0 10 6
9 13 -7 42 20 63 179 141 88 44 163 78 166 77 4 -1 19 5 35 14 16 8 51 22 78
31 117 39 258 99 315 134 62 37 78 41 78 17z m332 -67 c38 -57 64 -114 49
-108 -5 2 -34 40 -64 86 -38 57 -51 82 -39 80 9 -2 34 -28 54 -58z m295 -175
c29 -30 53 -62 53 -72 0 -11 -18 3 -50 39 -28 31 -59 60 -70 63 -24 8 -26 25
-3 25 9 0 41 -25 70 -55z m-427 -5 c27 -29 48 -85 37 -97 -3 -3 -12 10 -20 28
-15 34 -35 58 -72 84 -20 14 -20 14 3 15 14 0 36 -13 52 -30z m-1206 -73 c7
-7 11 -18 8 -25 -2 -6 1 -12 7 -12 6 0 11 -7 11 -15 0 -8 -3 -15 -8 -15 -12 0
-33 40 -27 50 4 6 1 10 -4 10 -6 0 -11 5 -11 10 0 14 9 13 24 -3z m876 -64 c0
-9 -8 -25 -17 -35 -11 -12 -16 -33 -14 -61 2 -43 -19 -75 -59 -90 -10 -4 -7
-6 8 -6 38 -2 28 -43 -23 -92 -30 -29 -43 -49 -39 -61 5 -17 1 -22 -69 -80
-23 -18 -36 -37 -33 -45 7 -17 -36 -63 -59 -63 -8 0 -15 -9 -15 -19 0 -18 -36
-55 -60 -63 -6 -2 -12 -18 -14 -36 -4 -36 -29 -60 -81 -77 -16 -6 -36 -22 -43
-37 -7 -16 -18 -28 -25 -28 -8 0 -7 3 2 9 7 5 10 14 7 20 -8 13 31 50 52 51 7
0 10 4 7 10 -3 5 0 7 8 4 8 -3 18 0 22 5 3 6 10 9 15 6 4 -2 10 7 13 20 5 30
-25 54 -47 36 -9 -8 -12 -5 -12 11 1 11 -5 23 -12 25 -8 3 -10 -1 -6 -14 6
-15 5 -16 -7 -5 -8 7 -14 25 -14 39 -1 15 -7 29 -14 31 -8 3 -11 1 -8 -4 3 -5
-5 -14 -18 -20 -21 -10 -22 -10 -13 6 6 9 30 30 53 46 24 16 41 34 38 40 -5
14 29 13 40 -1 4 -6 7 -1 5 10 -2 14 3 21 20 23 12 2 22 8 22 13 0 6 -4 8 -8
5 -4 -2 -8 4 -8 14 0 18 2 18 18 3 17 -15 18 -15 15 3 -5 34 -17 46 -33 33 -8
-6 -14 -9 -14 -5 0 3 -11 1 -25 -4 -15 -6 -26 -6 -30 0 -9 14 -25 12 -20 -2 2
-7 -7 -22 -22 -32 -16 -12 -23 -14 -17 -5 4 8 9 19 10 24 0 6 2 15 2 20 2 14
40 17 47 4 4 -5 13 -3 21 5 8 9 22 13 32 10 16 -5 15 -5 -1 6 -9 6 -22 8 -27
5 -6 -3 -10 -1 -10 4 0 6 7 11 16 11 11 0 14 6 8 22 -6 21 -5 22 11 8 17 -14
18 -13 12 3 -6 15 3 22 26 18 4 0 7 6 7 16 0 9 3 14 6 10 3 -3 18 8 31 24 15
17 32 28 40 25 8 -3 12 -2 9 3 -7 11 27 41 154 140 104 80 140 97 140 64z
m-840 -29 c0 -8 -4 -12 -10 -9 -5 3 -10 10 -10 16 0 5 5 9 10 9 6 0 10 -7 10
-16z m1728 -8 c26 -14 87 -73 67 -65 -17 7 -115 70 -115 75 0 8 22 4 48 -10z
m-1616 -216 c-3 -3 -7 1 -9 8 -3 6 -9 12 -14 12 -6 0 -7 -5 -3 -12 4 -7 3 -8
-4 -4 -9 5 -9 13 -1 28 11 20 11 20 23 -3 7 -13 11 -26 8 -29z m186 18 c-2 -6
-10 -13 -16 -14 -7 -1 -8 0 -2 3 5 2 8 9 4 14 -3 5 0 9 6 9 7 0 10 -5 8 -12z
m799 -54 c39 -30 89 -101 79 -112 -4 -4 -12 2 -18 13 -6 11 -33 41 -59 68 -27
26 -49 49 -49 52 0 10 14 4 47 -21z m333 -52 c0 -4 -4 -12 -8 -17 -5 -6 -19
-37 -31 -70 -34 -92 -107 -194 -163 -227 -27 -15 -48 -25 -48 -22 0 8 69 105
84 119 11 10 25 33 94 157 24 44 43 68 55 68 9 0 17 -4 17 -8z m-1270 -63 c0
-6 -4 -7 -10 -4 -5 3 -10 11 -10 16 0 6 5 7 10 4 6 -3 10 -11 10 -16z m245
-19 c3 -5 1 -10 -4 -10 -6 0 -11 5 -11 10 0 6 2 10 4 10 3 0 8 -4 11 -10z
m633 -34 c31 -16 101 -86 86 -86 -5 0 -33 18 -63 40 -29 22 -57 40 -62 40 -5
0 -9 5 -9 10 0 14 16 12 48 -4z m-1071 -28 c-3 -8 -6 -5 -6 6 -1 11 2 17 5 13
3 -3 4 -12 1 -19z m881 -147 c7 -29 10 -61 6 -70 -4 -11 -11 2 -19 38 -7 30
-20 60 -29 66 -18 14 -10 27 14 23 9 -2 20 -24 28 -57z m-543 29 c-3 -5 -12
-10 -18 -10 -7 0 -6 4 3 10 19 12 23 12 15 0z m99 -56 c3 -8 2 -12 -4 -9 -6 3
-10 10 -10 16 0 14 7 11 14 -7z m-197 -120 c-3 -3 -12 -4 -19 -1 -8 3 -5 6 6
6 11 1 17 -2 13 -5z m70 -160 c23 -88 9 -102 -16 -15 -7 23 -15 50 -18 58 -4
10 -1 14 7 11 8 -2 20 -27 27 -54z m-315 -39 c-8 -30 -17 -53 -20 -51 -7 7 19
106 28 106 4 0 0 -25 -8 -55z m830 -80 c33 -25 53 -45 45 -45 -20 0 -127 72
-121 82 8 13 13 11 76 -37z m15 -254 c-2 -43 -12 -91 -21 -107 l-16 -29 8 45
c4 25 7 73 7 108 -1 47 2 62 13 62 12 0 14 -14 9 -79z m3770 63 c-3 -3 -12 -4
-19 -1 -8 3 -5 6 6 6 11 1 17 -2 13 -5z m-1246 -56 c6 -11 6 -19 -1 -23 -6 -3
-10 4 -10 17 0 17 -2 20 -9 9 -5 -8 -8 -19 -7 -25 2 -6 1 -8 -1 -3 -3 4 -13 7
-23 7 -10 0 -21 4 -24 9 -3 4 6 6 19 3 14 -2 25 0 25 7 0 5 -6 8 -14 5 -8 -3
-16 -2 -19 3 -3 5 8 8 25 8 17 0 34 -8 39 -17z m-52 -44 c-9 -11 -15 -11 -25
-3 -18 15 -18 14 11 15 21 2 24 -1 14 -12z m-2600 -196 c38 -157 21 -159 -23
-3 -23 82 -25 120 -6 98 4 -4 17 -47 29 -95z m2737 -150 c4 -6 3 -8 -4 -4 -5
3 -13 0 -15 -6 -3 -8 -6 -6 -6 5 -1 19 14 23 25 5z m14 -23 c0 -2 -10 -9 -22
-15 -22 -11 -22 -10 -4 4 21 17 26 19 26 11z m-3095 -55 c10 -11 16 -20 13
-20 -3 0 -13 9 -23 20 -10 11 -16 20 -13 20 3 0 13 -9 23 -20z m3730 0 c110
-5 270 -16 355 -24 85 -9 205 -21 265 -27 189 -18 425 -50 545 -74 135 -28
169 -39 151 -49 -6 -4 -42 1 -79 12 -159 47 -355 78 -647 102 -71 6 -149 13
-172 16 -33 4 -43 2 -43 -9 0 -20 -24 -24 -100 -17 -64 7 -64 7 -15 9 36 1 46
4 35 11 -8 5 -10 10 -5 11 43 7 -147 19 -375 25 -254 6 -591 -6 -634 -22 -9
-3 -16 -1 -16 5 0 18 43 23 243 31 283 10 276 10 492 0z m1590 -320 c68 -55
113 -100 99 -100 -6 0 -23 14 -40 31 -16 17 -55 49 -87 72 -32 23 -68 50 -80
60 -50 42 49 -16 108 -63z m-4741 -89 c-2 -3 -12 3 -22 13 -16 17 -16 18 5 5
12 -7 20 -15 17 -18z m676 -125 c0 -3 -4 -8 -10 -11 -5 -3 -10 -1 -10 4 0 6 5
11 10 11 6 0 10 -2 10 -4z m1839 -41 c11 -10 4 -9 -24 5 -39 20 -86 27 -84 13
3 -21 -2 -33 -16 -33 -8 0 -22 -16 -31 -35 -9 -19 -20 -32 -25 -29 -5 3 -6 -2
-3 -10 7 -19 -34 -37 -65 -29 -25 6 -26 13 -7 56 33 77 113 115 195 91 24 -7
51 -20 60 -29z m-1789 31 c0 -3 -4 -8 -10 -11 -5 -3 -10 -1 -10 4 0 6 5 11 10
11 6 0 10 -2 10 -4z m100 0 c0 -3 -4 -8 -10 -11 -5 -3 -10 -1 -10 4 0 6 5 11
10 11 6 0 10 -2 10 -4z m860 -36 c0 -5 -7 -7 -15 -4 -8 4 -15 8 -15 10 0 2 7
4 15 4 8 0 15 -4 15 -10z m93 -27 c-7 -2 -19 -2 -25 0 -7 3 -2 5 12 5 14 0 19
-2 13 -5z m1080 -79 c22 -4 37 -12 37 -21 0 -27 66 -41 275 -56 444 -34 621
-42 662 -29 25 8 61 10 108 5 l70 -8 6 -65 c7 -72 16 -100 54 -159 31 -50 31
-52 3 -43 -28 9 -49 9 -65 -1 -8 -5 -13 -4 -13 2 0 7 -19 10 -50 7 -30 -2 -53
1 -58 8 -4 6 -29 12 -57 13 -83 3 -95 5 -101 15 -3 5 -11 4 -19 -2 -10 -8 -19
-8 -35 0 -15 8 -25 8 -34 1 -14 -12 -46 -5 -46 10 0 5 -19 6 -42 3 -30 -5 -39
-4 -34 4 4 7 1 12 -8 12 -8 0 -17 -6 -20 -12 -5 -10 -7 -10 -12 1 -5 11 -8 11
-14 0 -6 -9 -12 -10 -22 -2 -7 6 -37 9 -65 8 -29 -2 -53 1 -53 6 0 5 -13 6
-30 3 -18 -4 -30 -2 -30 4 0 6 -13 9 -28 7 -16 -2 -35 1 -43 5 -8 5 -19 4 -26
-2 -10 -8 -13 -3 -13 23 0 48 -11 60 -58 66 -41 5 -41 5 -63 -40 -13 -26 -27
-43 -33 -39 -16 10 -46 10 -52 0 -3 -5 -11 -5 -17 0 -17 13 -57 21 -57 12 0
-5 -12 -5 -27 -1 -16 4 -34 6 -42 3 -8 -3 -11 0 -7 7 8 12 -16 16 -28 4 -12
-13 -46 -13 -46 0 0 8 -3 8 -9 -2 -8 -12 -12 -12 -25 2 -15 14 -13 21 18 73
22 37 39 82 47 126 12 66 13 69 38 64 14 -3 43 -8 64 -12z m1453 -9 c-11 -8
-25 -15 -30 -15 -6 1 0 7 14 15 32 19 40 18 16 0z m51 9 c-3 -3 -12 -4 -19 -1
-8 3 -5 6 6 6 11 1 17 -2 13 -5z m-97 -38 c0 -2 -8 -10 -17 -17 -16 -13 -17
-12 -4 4 13 16 21 21 21 13z m-1698 -58 c-41 -67 -103 -103 -163 -95 l-34 4
38 1 c57 3 115 37 145 87 15 23 29 41 31 39 2 -1 -6 -18 -17 -36z m-929 -5
c-7 -2 -21 -2 -30 0 -10 3 -4 5 12 5 17 0 24 -2 18 -5z m648 -40 c13 -16 12
-17 -3 -4 -17 13 -22 21 -14 21 2 0 10 -8 17 -17z m-2985 -164 c0 -8 4 -22 9
-32 13 -30 -11 -44 -35 -22 -11 10 -32 19 -45 20 -26 1 -33 -9 -15 -20 22 -13
10 -44 -17 -47 l-27 -3 33 -31 c59 -55 15 -72 -75 -30 -58 27 -61 30 -65 70
-4 30 14 47 78 75 12 6 28 19 35 31 7 11 23 20 35 20 13 0 23 5 23 11 0 16 65
-25 66 -42z m5204 25 c-8 -8 -23 -20 -34 -25 -13 -7 -9 -1 9 15 34 29 43 33
25 10z m-2400 -24 c0 -5 -7 -10 -15 -10 -8 0 -15 5 -15 10 0 6 7 10 15 10 8 0
15 -4 15 -10z m-1162 -19 c3 -8 -1 -12 -9 -9 -7 2 -15 10 -17 17 -3 8 1 12 9
9 7 -2 15 -10 17 -17z m1241 5 c9 -11 9 -16 0 -21 -10 -7 -28 10 -29 28 0 12
17 8 29 -7z m2184 -13 c-7 -2 -19 -2 -25 0 -7 3 -2 5 12 5 14 0 19 -2 13 -5z
m50 0 c-7 -2 -19 -2 -25 0 -7 3 -2 5 12 5 14 0 19 -2 13 -5z m-2188 -21 c-3
-3 -11 0 -18 7 -9 10 -8 11 6 5 10 -3 15 -9 12 -12z m125 -43 c0 -6 -4 -7 -10
-4 -5 3 -10 11 -10 16 0 6 5 7 10 4 6 -3 10 -11 10 -16z m25 1 c3 -5 1 -10 -4
-10 -6 0 -11 5 -11 10 0 6 2 10 4 10 3 0 8 -4 11 -10z m-1475 -25 c16 -19 5
-35 -24 -35 -22 0 -42 31 -28 44 10 11 40 6 52 -9z m1474 -26 c-4 -7 -44 0
-44 7 0 2 11 3 24 2 14 -1 23 -5 20 -9z m-171 -6 c-7 -2 -19 -2 -25 0 -7 3 -2
5 12 5 14 0 19 -2 13 -5z m242 -3 c3 -5 1 -10 -4 -10 -6 0 -11 5 -11 10 0 6 2
10 4 10 3 0 8 -4 11 -10z m2514 -24 c10 -12 7 -15 -18 -14 -17 1 -31 5 -31 10
0 5 5 6 10 3 6 -3 10 -1 10 4 0 15 15 14 29 -3z m36 4 c3 -6 -1 -7 -9 -4 -18
7 -21 14 -7 14 6 0 13 -4 16 -10z m235 0 c0 -5 -8 -10 -17 -10 -15 0 -16 2 -3
10 19 12 20 12 20 0z m-2824 -15 c4 -8 12 -15 20 -15 8 0 14 -5 14 -10 0 -7
-6 -7 -17 -2 -10 5 -23 7 -30 5 -14 -5 -26 13 -18 27 9 15 25 12 31 -5z m64
-1 c0 -2 -9 -4 -20 -4 -11 0 -20 4 -20 9 0 5 9 7 20 4 11 -3 20 -7 20 -9z
m-2834 -10 c-3 -9 4 -19 19 -26 28 -13 32 -26 11 -34 -21 -8 17 -44 47 -44 20
-1 20 -2 4 -11 -9 -6 -15 -14 -12 -20 6 -9 -38 -5 -104 9 l-34 7 28 33 27 32
-24 20 c-12 11 -26 19 -30 20 -4 0 -5 6 -2 14 3 8 20 14 40 14 27 0 34 -4 30
-14z m1205 -13 c19 -16 21 -22 12 -32 -18 -18 -63 4 -63 31 0 25 21 26 51 1z
m-1381 5 c0 -2 3 -11 6 -20 5 -12 0 -16 -20 -16 -19 0 -26 5 -26 20 0 13 7 20
20 20 11 0 20 -2 20 -4z m5690 -6 c0 -5 -4 -10 -10 -10 -5 0 -10 5 -10 10 0 6
5 10 10 10 6 0 10 -4 10 -10z m78 -1 c-2 -6 -8 -10 -13 -10 -5 0 -11 4 -13 10
-2 6 4 11 13 11 9 0 15 -5 13 -11z m-2658 -9 c0 -5 -4 -10 -10 -10 -5 0 -10 5
-10 10 0 6 5 10 10 10 6 0 10 -4 10 -10z m150 -10 c0 -5 -7 -10 -15 -10 -8 0
-15 5 -15 10 0 6 7 10 15 10 8 0 15 -4 15 -10z m2400 0 c0 -5 -2 -10 -4 -10
-3 0 -8 5 -11 10 -3 6 -1 10 4 10 6 0 11 -4 11 -10z m-5403 -52 c-3 -8 -6 -5
-6 6 -1 11 2 17 5 13 3 -3 4 -12 1 -19z m5654 0 c0 -7 2 -21 4 -30 2 -10 0
-20 -5 -23 -4 -3 -10 11 -12 30 -2 19 0 35 4 35 4 0 8 -6 9 -12z m-5453 -36
c7 -43 -117 -76 -132 -36 -10 26 22 53 68 57 56 5 61 3 64 -21z m5407 18 c3
-6 -1 -7 -9 -4 -18 7 -21 14 -7 14 6 0 13 -4 16 -10z m82 3 c-4 -3 -2 -12 4
-20 7 -8 8 -13 1 -13 -12 0 -23 26 -15 34 4 3 9 6 11 6 3 0 2 -3 -1 -7z
m-6270 -92 c96 -23 133 -37 133 -51 0 -15 -52 -12 -94 5 -19 8 -58 20 -85 26
-53 11 -91 39 -53 39 11 0 56 -9 99 -19z m437 7 c4 4 12 -1 17 -10 5 -9 24
-19 42 -23 17 -4 41 -9 51 -12 19 -5 19 -6 1 -19 -25 -18 -60 -18 -90 1 -14 8
-36 22 -50 30 -29 18 -25 51 5 35 9 -5 21 -6 24 -2z m1761 -70 c26 -12 32 -23
15 -33 -13 -8 -72 24 -65 35 8 13 19 13 50 -2z m3559 -32 c89 -40 146 -87 250
-207 87 -100 115 -149 85 -149 -6 0 -41 30 -78 66 -92 93 -172 142 -259 159
-17 4 -54 22 -82 41 -27 19 -51 34 -53 34 -2 0 -2 -12 0 -27 3 -23 -6 -39 -49
-83 -45 -47 -53 -60 -50 -87 2 -18 -1 -33 -7 -33 -5 0 -17 -22 -26 -50 -13
-38 -21 -50 -37 -50 -31 0 -76 37 -86 73 -14 48 -9 149 9 188 9 19 24 51 33
72 18 42 71 72 112 64 14 -2 25 2 29 11 9 24 137 11 209 -22z m1990 5 c18 -19
17 -20 -10 -12 -15 4 -29 12 -32 19 -6 19 23 14 42 -7z m-7499 -1 c32 -12 117
-99 112 -114 -10 -28 -62 -5 -119 51 -32 31 -58 61 -58 65 0 11 34 10 65 -2z
m1591 -4 c14 -11 16 -18 8 -26 -18 -18 -49 -7 -52 18 -4 26 15 29 44 8z m4178
-8 c-3 -4 -11 -5 -19 -1 -21 7 -19 12 4 10 11 0 18 -5 15 -9z m336 -20 c0 -6
-7 -8 -15 -4 -8 3 -15 1 -15 -4 0 -5 21 -15 48 -22 l47 -12 -40 -8 c-22 -4
-59 -7 -82 -7 -23 -1 -45 -6 -49 -12 -4 -8 -9 -8 -17 0 -6 6 -28 11 -49 11
-27 0 -38 4 -38 15 0 9 -9 15 -22 15 -13 1 -34 8 -48 16 l-25 15 25 -6 c28 -8
149 -7 161 1 4 2 11 -1 14 -6 5 -8 11 -6 18 4 20 24 87 28 87 4z m1470 13 c0
-8 -19 -37 -21 -31 0 3 -2 12 -4 21 -1 9 4 16 11 16 8 0 14 -3 14 -6z m-5700
-128 c0 -53 -12 -68 -39 -54 -35 19 -22 91 14 78 9 -4 14 -3 10 3 -3 6 -1 10
4 10 6 0 11 -17 11 -37z m4363 -83 c13 0 18 -3 11 -10 -5 -5 -62 -16 -126 -24
-64 -9 -135 -23 -157 -32 -55 -22 -73 -13 -28 15 21 13 67 27 105 33 37 5 85
13 107 18 22 4 46 6 53 4 8 -2 23 -4 35 -4z m-2165 -91 c15 -6 59 -15 98 -19
39 -5 86 -16 105 -24 19 -8 83 -34 144 -56 67 -25 121 -51 140 -69 16 -16 53
-40 81 -55 69 -34 89 -53 72 -73 -17 -20 -60 -10 -111 27 -23 16 -81 45 -130
65 -48 19 -101 42 -117 50 -16 8 -76 27 -132 41 -84 21 -136 26 -285 31 l-182
5 -82 -38 c-62 -29 -84 -35 -97 -27 -21 13 -27 46 -12 73 27 50 172 82 248 56
42 -15 82 -10 96 12 8 13 131 13 164 1z m1022 -43 c-1 -6 -10 0 -20 13 -11 13
-20 28 -20 35 1 6 10 0 20 -13 11 -13 20 -28 20 -35z m1244 26 c5 -8 -67 -76
-101 -95 -27 -16 14 49 49 77 36 28 44 31 52 18z m-435 -136 c38 -35 27 -46
-46 -45 -38 0 -84 -1 -103 -3 -43 -4 -52 20 -20 52 19 19 31 22 86 18 43 -3
69 -10 83 -22z m-3638 -66 c36 -20 19 -35 -62 -54 -55 -13 -83 -16 -90 -9 -15
15 6 51 34 63 31 12 95 12 118 0z m159 -60 c-8 -5 -24 -10 -35 -10 -17 0 -17
2 -5 10 8 5 24 10 35 10 17 0 17 -2 5 -10z m467 -52 c81 -33 106 -53 40 -33
-97 31 -173 58 -181 66 -18 17 71 -4 141 -33z m-2938 -76 c36 -26 48 -49 34
-63 -9 -9 -22 -5 -56 14 -52 31 -71 52 -62 67 9 15 52 5 84 -18z m1276 -317
c25 -24 32 -45 17 -45 -10 0 -55 31 -64 44 -24 34 14 35 47 1z m1706 -104 c20
-16 22 -23 13 -38 -25 -41 -101 -55 -202 -38 -84 14 -56 46 71 80 71 19 91 18
118 -4z m597 -436 c39 -9 25 -32 -24 -39 -71 -9 -242 -7 -249 3 -8 13 32 33
75 38 19 2 36 6 38 8 5 4 129 -3 160 -10z m2828 -94 c16 -1 12 -40 -6 -51 -23
-15 -56 -12 -71 6 -11 14 -10 19 9 34 12 10 30 17 40 15 9 -2 22 -4 28 -4z"/>
<path d="M435 4800 c3 -5 8 -10 11 -10 2 0 4 5 4 10 0 6 -5 10 -11 10 -5 0 -7
-4 -4 -10z"/>
<path d="M584 4776 c-10 -8 -17 -16 -14 -19 3 -2 14 4 24 14 23 22 18 25 -10
5z"/>
<path d="M557 4733 c-3 -5 -1 -17 4 -28 7 -17 8 -17 8 8 1 27 -4 34 -12 20z"/>
<path d="M400 4619 c0 -5 5 -7 10 -4 6 3 10 8 10 11 0 2 -4 4 -10 4 -5 0 -10
-5 -10 -11z"/>
<path d="M400 4481 c0 -5 7 -12 16 -15 14 -5 15 -4 4 9 -14 17 -20 19 -20 6z"/>
<path d="M425 4440 c-3 -5 -1 -10 4 -10 6 0 11 5 11 10 0 6 -2 10 -4 10 -3 0
-8 -4 -11 -10z"/>
<path d="M496 4386 c10 -8 21 -12 24 -10 5 6 -21 24 -34 24 -6 0 -1 -6 10 -14z"/>
<path d="M5970 7990 c0 -15 -1 -19 -22 -93 -10 -38 -18 -83 -18 -100 1 -18 -1
-41 -3 -52 -2 -11 -1 -24 3 -30 4 -5 10 -22 14 -37 3 -16 12 -27 19 -25 6 1
11 -3 10 -10 -1 -6 4 -14 12 -17 8 -3 15 -2 15 2 0 11 54 11 61 0 3 -5 3 -28
-2 -51 -4 -26 -3 -44 3 -48 6 -4 5 -9 -3 -12 -10 -4 -10 -6 -1 -6 6 -1 12 -8
12 -16 0 -8 5 -15 10 -15 6 0 9 -3 9 -7 -6 -35 49 -111 71 -98 5 3 10 2 10 -3
0 -9 55 -29 101 -36 29 -5 73 20 64 35 -4 5 -2 9 4 9 5 0 10 18 9 39 0 22 2
43 6 49 15 24 16 105 1 154 -19 64 -19 61 3 84 22 26 85 31 117 10 13 -9 31
-16 40 -16 8 0 15 -5 15 -12 0 -6 3 -8 6 -5 8 7 93 -81 95 -97 1 -6 1 -14 0
-18 0 -5 5 -8 13 -8 8 0 16 -7 20 -15 8 -21 -30 -43 -100 -57 -55 -12 -73 -22
-74 -41 0 -5 5 -5 12 -1 7 5 9 2 5 -9 -4 -11 -2 -14 7 -11 7 3 16 -2 19 -10 4
-9 11 -16 17 -16 6 0 26 -10 43 -23 18 -12 41 -27 52 -34 11 -6 45 -28 76 -47
34 -21 79 -39 115 -46 32 -6 78 -14 102 -19 24 -4 55 -18 70 -30 15 -12 39
-29 53 -38 14 -9 30 -26 35 -37 5 -11 23 -27 39 -36 40 -20 45 -28 46 -80 0
-25 4 -56 8 -70 4 -16 0 -43 -12 -74 -10 -27 -16 -60 -12 -73 3 -13 1 -23 -4
-23 -4 0 -11 -19 -15 -42 -4 -23 -14 -50 -23 -60 -14 -15 -19 -16 -42 -3 -36
18 -48 9 -66 -53 -19 -62 -40 -78 -121 -93 -107 -20 -104 -17 -104 -108 l0
-79 33 -11 c17 -6 44 -22 59 -36 20 -19 48 -29 106 -39 43 -8 92 -21 108 -29
16 -8 49 -18 74 -22 25 -3 56 -8 70 -10 69 -10 95 -37 109 -112 13 -67 -6
-105 -62 -127 -70 -26 -102 -29 -135 -12 -57 30 -102 21 -172 -35 -31 -24
-133 -63 -142 -54 -2 2 -29 6 -60 9 -32 3 -67 10 -79 16 -11 7 -23 9 -27 6 -3
-3 1 -6 9 -7 8 0 6 -4 -6 -9 -16 -7 -16 -9 -4 -9 9 -1 19 -11 23 -24 3 -12 16
-33 28 -47 13 -14 22 -28 20 -33 -1 -5 2 -6 8 -2 5 3 10 1 10 -4 0 -6 6 -11
14 -11 8 0 18 -10 22 -22 4 -13 13 -27 20 -33 23 -17 28 -100 8 -120 -10 -9
-13 -20 -8 -23 5 -4 10 -13 12 -20 1 -7 15 -26 30 -42 48 -50 76 -193 52 -266
-19 -58 -99 -193 -144 -242 -37 -40 -39 -46 -42 -118 -3 -56 -10 -86 -28 -117
-21 -38 -38 -86 -35 -104 0 -4 -8 -10 -18 -14 -17 -7 -16 -8 2 -9 19 -1 19 -1
2 -14 -10 -8 -20 -24 -22 -37 -3 -13 -8 -37 -12 -54 -4 -16 -6 -37 -4 -45 2
-13 1 -13 -8 0 -9 13 -11 13 -11 -2 0 -10 4 -18 8 -18 5 0 9 -7 9 -15 0 -8 -4
-12 -8 -9 -4 2 -10 0 -14 -6 -3 -5 2 -10 11 -10 17 0 16 -1 -1 -13 -17 -13
-17 -14 4 -20 11 -3 21 -11 20 -19 0 -10 -2 -10 -6 0 -2 6 -9 12 -15 12 -6 0
-4 -8 5 -18 10 -10 14 -22 10 -25 -3 -4 -4 -7 -1 -7 4 0 16 19 27 43 26 54
104 143 143 163 17 9 27 11 24 6 -3 -6 1 -13 10 -16 23 -9 26 -8 18 7 -6 9 -4
9 8 -1 10 -8 18 -9 22 -3 4 6 13 8 21 4 8 -3 15 0 15 7 0 8 6 9 18 5 9 -4 24
-7 32 -8 8 0 21 -5 29 -11 11 -8 13 -8 8 0 -4 7 0 15 9 18 8 3 13 2 10 -2 -2
-4 4 -8 14 -8 11 0 16 5 12 11 -4 6 0 3 9 -7 9 -9 19 -15 21 -12 7 6 68 -63
68 -76 0 -6 4 -10 10 -10 5 0 9 3 8 8 -2 10 20 62 27 62 2 0 0 -11 -5 -25 -5
-14 -7 -25 -4 -25 2 0 -1 -10 -7 -22 -11 -21 -11 -22 5 -9 14 12 16 12 10 -3
-3 -9 -10 -16 -14 -16 -5 0 -9 -12 -9 -27 -2 -54 -5 -60 -33 -71 -22 -8 -31
-7 -43 5 -8 8 -15 10 -15 4 0 -5 5 -13 10 -16 6 -3 10 -12 9 -18 0 -9 -2 -9
-6 1 -2 6 -9 12 -14 12 -6 0 -8 -4 -5 -8 2 -4 -4 -8 -15 -8 -18 0 -18 2 -5 12
9 6 13 14 10 17 -8 7 -44 -25 -38 -34 2 -4 -5 -5 -16 -2 -16 4 -19 2 -14 -11
3 -9 1 -16 -6 -16 -6 0 -9 -4 -5 -9 3 -5 -2 -16 -10 -24 -11 -12 -12 -17 -2
-20 9 -3 9 -8 -2 -18 -9 -9 -11 -9 -7 -1 11 19 -12 14 -24 -5 -8 -14 -13 -15
-17 -5 -4 10 -8 9 -19 -5 -13 -17 -14 -17 -8 0 7 20 1 21 -28 6 -16 -9 -19 -8
-13 2 6 9 3 11 -8 6 -12 -4 -17 -1 -18 11 0 9 -3 12 -5 6 -3 -6 -16 -9 -29 -6
-14 2 -22 9 -18 15 3 5 1 7 -5 3 -6 -3 -18 1 -26 10 -9 8 -16 12 -16 7 0 -5 5
-14 12 -21 9 -9 9 -12 -1 -12 -11 0 -11 -3 -1 -15 15 -18 -1 -20 -18 -3 -9 9
-12 9 -12 0 0 -7 -5 -11 -12 -9 -7 1 -12 -9 -12 -23 -1 -14 -5 -28 -11 -32 -6
-5 -4 -12 5 -18 10 -6 11 -10 3 -10 -7 0 -12 -3 -12 -7 4 -22 -3 -43 -17 -57
-8 -9 -13 -16 -9 -16 5 0 -3 -12 -32 -45 -7 -7 -13 -18 -13 -23 0 -6 -3 -12
-7 -14 -13 -5 -44 -79 -38 -89 4 -5 2 -9 -2 -9 -10 0 -11 -63 -1 -70 4 -3 10
-21 12 -40 3 -19 13 -51 22 -70 11 -22 18 -58 19 -97 0 -35 3 -63 7 -63 7 0 3
-48 -5 -57 -4 -3 -2 -15 4 -26 8 -14 8 -18 -1 -12 -8 5 -10 -5 -6 -34 2 -23 0
-41 -5 -41 -5 0 -8 -3 -8 -8 1 -4 0 -10 -1 -14 -5 -16 -7 -24 -15 -73 -4 -27
-12 -58 -17 -69 -7 -13 -7 -16 1 -12 7 4 11 -1 11 -13 0 -11 -6 -24 -13 -28
-8 -4 -16 -16 -20 -26 -4 -11 -3 -16 3 -12 6 3 10 -1 10 -9 0 -8 -8 -20 -17
-25 -10 -6 -13 -11 -6 -11 6 0 19 10 27 22 9 12 16 17 16 10 0 -7 14 -12 35
-12 28 0 38 -5 47 -26 8 -18 9 -30 1 -42 -12 -20 -71 -28 -86 -13 -6 6 -27 11
-46 11 -41 0 -38 -7 8 -15 19 -3 42 -10 53 -16 10 -6 29 -9 41 -7 18 2 22 -2
21 -24 -1 -23 3 -28 22 -28 14 0 32 -9 41 -20 10 -11 23 -20 31 -20 7 0 11 -4
7 -9 -3 -5 3 -12 14 -16 13 -4 18 -13 17 -30 -2 -13 3 -26 10 -29 8 -3 14 -13
14 -22 0 -9 8 -23 18 -31 10 -9 11 -11 2 -7 -10 5 -9 1 4 -14 10 -12 23 -19
27 -16 5 3 12 -2 15 -11 5 -11 10 -13 19 -5 7 6 15 7 18 3 3 -4 93 -7 201 -6
156 2 200 5 218 17 27 19 38 12 38 -23 0 -64 -83 -107 -209 -110 -47 -1 -88
-4 -91 -6 -4 -2 -22 -7 -41 -10 -19 -3 -53 -15 -77 -27 -36 -17 -48 -18 -69
-9 -28 13 -96 -1 -110 -22 -20 -31 -31 -81 -23 -103 9 -24 18 -28 53 -25 9 1
17 -2 17 -8 0 -6 11 -7 28 -3 33 9 90 8 119 -2 38 -12 89 -79 97 -125 8 -53
20 -46 41 27 18 59 44 117 50 110 2 -2 -7 -34 -20 -71 -14 -37 -25 -80 -25
-96 0 -25 5 -29 51 -39 68 -16 79 -15 79 7 0 10 6 33 14 51 10 24 15 28 19 16
10 -26 26 -19 44 21 20 40 32 46 147 64 39 6 82 20 97 31 27 20 70 22 110 4
12 -5 20 1 29 25 18 43 58 89 78 89 13 0 11 -3 -6 -15 -36 -26 -71 -97 -80
-163 l-9 -61 22 22 c12 12 36 50 53 84 30 58 52 86 52 64 0 -5 -5 -13 -11 -17
-12 -7 -49 -89 -49 -107 0 -7 9 7 21 30 18 37 23 41 47 34 15 -5 51 -20 80
-35 28 -14 52 -23 52 -20 0 4 8 0 18 -7 14 -11 15 -11 5 1 -7 8 -13 21 -13 30
0 25 -73 54 -119 46 -23 -3 -41 -3 -41 2 0 15 37 39 55 36 20 -3 48 14 41 25
-2 3 20 6 49 6 29 0 51 -2 49 -4 -2 -3 3 -15 11 -28 9 -13 11 -23 5 -23 -14 0
-13 -13 5 -36 13 -17 14 330 15 2864 l0 2882 -1015 0 c-670 0 -1015 -3 -1015
-10z m1170 -3714 c0 -2 -7 -7 -16 -10 -8 -3 -12 -2 -9 4 6 10 25 14 25 6z
m409 -1707 c59 -25 65 -37 19 -38 -18 0 -57 -3 -86 -7 -54 -6 -82 5 -82 33 0
16 34 31 71 32 15 1 49 -9 78 -20z"/>
<path d="M979 6508 c-55 -52 -186 -216 -219 -276 -14 -24 -29 -41 -37 -38 -8
3 -10 -1 -6 -11 5 -12 3 -14 -7 -8 -9 5 -11 4 -6 -4 4 -7 -6 -27 -24 -49 -46
-56 -47 -56 -69 -101 -27 -51 -41 -52 -43 -3 -1 43 -5 164 -8 278 -4 136 -18
116 -20 -27 0 -74 -5 -199 -9 -279 -5 -80 -7 -147 -5 -149 2 -2 4 4 4 15 0 10
7 28 16 39 13 18 14 17 8 -15 -10 -58 -12 -62 -36 -55 -17 4 -19 3 -8 -4 8 -5
18 -11 22 -13 4 -1 28 29 53 67 71 110 95 135 162 169 118 59 168 83 238 116
42 19 64 35 56 38 -8 3 -17 0 -19 -7 -2 -6 -8 -9 -13 -6 -5 3 -19 0 -31 -7
-13 -7 -26 -11 -30 -10 -7 2 -144 -59 -189 -83 -22 -12 -29 -13 -38 -1 -11 14
-5 26 13 26 6 0 5 -4 -3 -9 -9 -6 -10 -11 -2 -15 11 -7 15 5 12 32 -1 6 3 12
9 12 6 0 8 6 4 13 -6 9 -5 9 7 1 11 -9 17 -9 26 1 7 8 9 16 4 20 -5 3 -12 0
-14 -5 -3 -6 -4 -5 -3 2 2 7 10 12 19 12 9 -1 13 4 10 12 -3 8 0 14 7 14 10 0
10 3 0 15 -9 11 -9 15 -1 15 7 0 9 5 5 12 -4 6 -3 8 4 4 6 -3 13 -2 17 4 4 6
11 7 17 4 7 -4 8 -2 4 5 -4 6 -12 9 -17 6 -5 -3 -6 1 -3 9 3 9 12 12 22 8 14
-5 15 -3 5 9 -13 17 -5 34 16 34 8 0 16 6 19 13 2 6 -1 12 -8 12 -6 0 -8 -5
-4 -12 4 -7 3 -8 -5 -4 -14 9 -5 26 15 26 8 0 14 4 14 9 0 4 16 25 35 45 19
21 33 42 30 47 -4 5 1 9 10 9 9 0 14 4 11 8 -3 5 4 19 15 31 39 42 13 41 -32
-1z m-405 -576 c3 -5 -1 -9 -9 -9 -8 0 -12 4 -9 9 3 4 7 8 9 8 2 0 6 -4 9 -8z"/>
<path d="M3255 6320 c-78 -78 -105 -93 -51 -27 20 24 33 47 29 51 -4 4 -1 11
7 16 8 5 11 12 7 16 -11 11 -31 -11 -101 -115 -99 -147 -90 -158 35 -47 89 78
137 126 126 126 -4 0 0 11 9 25 9 14 15 25 12 25 -2 0 -35 -31 -73 -70z"/>
<path d="M268 6190 c15 -33 28 -56 30 -51 4 13 -38 111 -48 111 -5 0 4 -27 18
-60z"/>
<path d="M831 6231 c-8 -5 -9 -11 -3 -15 5 -3 12 1 16 9 6 17 6 18 -13 6z"/>
<path d="M303 6095 c3 -11 15 -68 28 -127 12 -60 26 -108 32 -108 23 0 -25
215 -55 245 -7 7 -8 3 -5 -10z"/>
<path d="M66 6037 c3 -10 9 -15 12 -12 3 3 0 11 -7 18 -10 9 -11 8 -5 -6z"/>
<path d="M6545 6010 c-8 -13 43 -90 59 -89 7 0 7 2 -1 5 -7 3 -9 12 -6 20 3 7
9 12 13 9 4 -2 4 10 1 28 -5 25 -12 33 -33 35 -14 2 -29 -2 -33 -8z"/>
<path d="M490 5799 c0 -5 5 -7 10 -4 6 3 10 8 10 11 0 2 -4 4 -10 4 -5 0 -10
-5 -10 -11z"/>
<path d="M510 5781 c0 -5 5 -13 10 -16 6 -3 10 -2 10 4 0 5 -4 13 -10 16 -5 3
-10 2 -10 -4z"/>
<path d="M3390 5752 c-8 -3 -26 -9 -40 -15 -14 -6 -29 -9 -33 -8 -5 1 -16 -8
-26 -20 -14 -17 -20 -19 -26 -9 -5 9 -4 11 3 6 7 -4 12 -2 12 4 0 7 -7 9 -16
6 -9 -3 -18 -6 -20 -6 -3 0 -2 -4 1 -10 3 -5 0 -10 -8 -10 -34 0 -56 -142 -27
-180 15 -20 16 -20 63 21 26 23 47 47 47 54 0 7 29 43 65 81 35 37 62 71 59
75 -2 4 2 9 8 12 7 2 0 4 -17 4 -16 0 -37 -2 -45 -5z"/>
<path d="M476 5741 c-3 -5 1 -11 9 -14 9 -4 12 -1 8 9 -6 16 -10 17 -17 5z"/>
<path d="M450 5709 c0 -14 -26 -40 -33 -33 -3 4 -4 -10 -2 -30 2 -23 -1 -34
-8 -29 -6 4 -7 1 -3 -6 5 -7 0 -21 -11 -33 -10 -12 -12 -18 -4 -13 8 4 17 2
23 -6 7 -10 7 -7 3 9 -3 12 -2 22 3 22 14 0 21 37 9 49 -7 7 -1 20 17 41 14
17 26 26 26 19 0 -7 -10 -23 -22 -36 -12 -13 -17 -23 -11 -23 16 0 45 50 39
66 -6 16 -26 19 -26 3z"/>
<path d="M720 5630 c-9 -6 -10 -10 -3 -10 6 0 15 5 18 10 8 12 4 12 -15 0z"/>
<path d="M376 5542 c-7 -12 12 -38 21 -29 4 5 1 12 -6 16 -11 7 -11 10 0 14 9
3 10 6 2 6 -6 1 -14 -3 -17 -7z"/>
<path d="M327 5501 c-7 -17 -16 -29 -20 -26 -4 3 -5 2 -2 -2 3 -3 -2 -17 -10
-30 -9 -13 -13 -28 -10 -34 4 -5 1 -8 -6 -7 -7 2 -18 -7 -24 -19 -12 -23 -28
-21 -19 2 3 7 0 16 -7 21 -9 5 -10 -1 -6 -25 4 -20 3 -30 -3 -26 -6 4 -10 -8
-10 -29 0 -23 -6 -38 -17 -45 -10 -5 -15 -13 -11 -17 5 -4 3 -13 -3 -21 -8 -9
-8 -13 0 -13 6 0 13 11 17 25 6 22 24 36 24 18 0 -17 -36 -60 -46 -56 -16 5
-24 -33 -10 -48 8 -9 7 -11 -7 -6 -9 4 -17 2 -17 -3 0 -6 5 -10 11 -10 5 0 7
-4 4 -10 -3 -5 -3 -15 1 -21 4 -7 9 -8 13 -1 3 5 15 12 26 14 28 4 40 22 76
111 17 42 36 77 41 77 5 0 7 4 4 8 -3 5 4 19 15 30 15 17 17 26 9 41 -5 11 -7
27 -4 35 3 9 1 16 -6 16 -6 0 -8 5 -5 10 3 6 11 10 16 10 6 0 7 -4 4 -10 -3
-5 -2 -10 4 -10 20 0 21 19 1 33 -18 13 -19 16 -5 27 13 11 14 10 9 -4 -3 -9
-1 -16 6 -16 15 0 9 32 -8 38 -7 2 -18 -10 -25 -27z m-86 -164 c-6 -8 -8 -16
-5 -19 3 -3 1 -8 -4 -12 -13 -8 -11 28 2 36 17 12 20 9 7 -5z m-40 -140 c-10
-9 -11 -8 -5 6 3 10 9 15 12 12 3 -3 0 -11 -7 -18z m-3 -37 c-7 -11 -15 -15
-17 -9 -2 6 3 15 10 20 20 12 21 11 7 -11z"/>
<path d="M550 5519 c0 -5 5 -7 10 -4 6 3 10 8 10 11 0 2 -4 4 -10 4 -5 0 -10
-5 -10 -11z"/>
<path d="M523 5513 c-17 -6 -17 -23 0 -23 8 0 14 7 14 15 0 8 -1 15 -1 14 -1
0 -7 -3 -13 -6z"/>
<path d="M470 5483 c0 -5 -15 -8 -32 -8 -21 0 -41 -8 -56 -22 -13 -13 -27 -23
-32 -23 -12 0 -12 -11 -1 -29 7 -11 15 -10 42 10 18 13 39 24 47 25 7 2 21 12
31 23 10 11 21 18 25 14 3 -3 6 -1 6 5 0 7 -7 12 -15 12 -8 0 -15 -3 -15 -7z"/>
<path d="M65 5170 c3 -5 8 -10 11 -10 2 0 4 5 4 10 0 6 -5 10 -11 10 -5 0 -7
-4 -4 -10z"/>
<path d="M257 5173 c-4 -3 -7 -11 -7 -17 0 -6 5 -5 12 2 6 6 9 14 7 17 -3 3
-9 2 -12 -2z"/>
<path d="M0 5109 c0 -5 5 -7 10 -4 5 3 10 8 10 11 0 2 -4 4 -10 4 -5 0 -10 -5
-10 -11z"/>
<path d="M6601 4514 c0 -11 3 -14 6 -6 3 7 2 16 -1 19 -3 4 -6 -2 -5 -13z"/>
<path d="M6585 4480 c3 -5 8 -10 11 -10 2 0 4 5 4 10 0 6 -5 10 -11 10 -5 0
-7 -4 -4 -10z"/>
<path d="M3615 3654 c-113 -64 -253 -157 -305 -205 l-35 -31 35 24 c150 105
208 142 295 193 95 56 125 75 114 75 -2 0 -49 -25 -104 -56z"/>
<path d="M3990 3690 c-8 -5 -10 -10 -5 -10 6 0 17 5 25 10 8 5 11 10 5 10 -5
0 -17 -5 -25 -10z"/>
<path d="M3455 3669 c-4 -6 -4 -13 -1 -16 3 -4 6 -1 6 6 0 7 5 9 12 5 7 -4 8
-3 4 4 -9 15 -13 15 -21 1z"/>
<path d="M3560 3650 c-9 -6 -10 -10 -3 -10 6 0 15 5 18 10 8 12 4 12 -15 0z"/>
<path d="M3497 3615 c-20 -14 -37 -28 -37 -31 0 -2 18 8 40 22 35 23 47 34 37
34 -1 0 -19 -11 -40 -25z"/>
<path d="M3153 3623 c-7 -2 -13 -11 -13 -19 0 -9 5 -12 10 -9 6 3 10 2 10 -2
0 -5 9 -14 20 -21 21 -12 21 -12 4 13 -9 14 -14 28 -10 32 3 3 6 1 6 -5 0 -7
4 -12 8 -12 5 0 9 7 9 15 0 15 -20 18 -44 8z"/>
<path d="M3379 3533 c-13 -16 -12 -17 4 -4 16 13 21 21 13 21 -2 0 -10 -8 -17
-17z"/>
<path d="M3339 3503 c-13 -16 -12 -17 4 -4 16 13 21 21 13 21 -2 0 -10 -8 -17
-17z"/>
<path d="M3600 3487 c-14 -8 -49 -26 -77 -41 -29 -16 -53 -32 -53 -37 0 -5 -6
-9 -13 -9 -7 0 -18 -9 -25 -20 -12 -20 -12 -20 30 1 63 32 185 119 166 119 -2
0 -14 -6 -28 -13z"/>
<path d="M3237 3395 c-15 -14 -27 -29 -27 -32 0 -4 14 6 30 22 28 26 34 35 27
35 -1 0 -15 -11 -30 -25z"/>
<path d="M3079 3313 c-13 -16 -12 -17 4 -4 16 13 21 21 13 21 -2 0 -10 -8 -17
-17z"/>
<path d="M2308 3299 c-10 -5 -18 -19 -18 -30 0 -17 6 -19 53 -17 61 2 91 -14
156 -89 23 -25 41 -40 41 -34 0 18 -87 108 -129 133 -20 12 -42 28 -49 35 -16
15 -31 16 -54 2z"/>
<path d="M32 3023 c2 -14 8 -28 15 -30 7 -3 13 -9 13 -14 0 -5 -12 -4 -26 2
-35 13 -39 7 -19 -28 9 -15 14 -19 10 -9 -5 16 -3 17 10 6 12 -10 15 -10 15 0
0 10 3 10 15 0 21 -18 87 -19 80 -2 -3 8 -5 16 -5 18 0 2 -5 4 -11 4 -5 0 -7
-5 -3 -11 5 -8 1 -8 -14 0 -29 15 -35 28 -17 35 8 3 15 0 15 -7 0 -8 4 -6 10
3 8 13 10 13 10 0 0 -11 3 -11 12 -2 6 6 9 14 6 17 -10 10 -69 24 -63 15 3 -5
1 -11 -5 -15 -5 -3 -10 3 -10 13 0 11 -9 22 -20 25 -16 4 -19 0 -18 -20z"/>
<path d="M6491 2958 c-80 -28 -154 -69 -214 -120 -37 -31 -147 -180 -140 -191
2 -4 23 18 45 50 84 122 200 217 298 243 32 9 45 8 71 -6 25 -12 37 -14 55 -5
28 12 30 24 8 45 -19 20 -21 20 -123 -16z"/>
<path d="M156 2946 c7 -18 29 -21 39 -6 3 6 2 10 -4 10 -5 0 -17 3 -25 6 -12
5 -15 2 -10 -10z"/>
<path d="M2848 2946 c-21 -15 -23 -41 -6 -52 10 -7 58 41 58 59 0 12 -34 7
-52 -7z"/>
<path d="M215 2930 c3 -5 8 -10 11 -10 2 0 4 5 4 10 0 6 -5 10 -11 10 -5 0 -7
-4 -4 -10z"/>
<path d="M247 2929 c7 -7 15 -10 18 -7 3 3 -2 9 -12 12 -14 6 -15 5 -6 -5z"/>
<path d="M1782 2915 c-16 -34 -15 -39 3 -21 8 8 15 20 15 26 0 6 5 8 10 5 6
-3 10 -1 10 4 0 21 -27 11 -38 -14z"/>
<path d="M46 2893 c0 -16 4 -27 7 -25 4 1 11 2 16 2 5 0 4 11 -2 25 -16 32
-23 32 -21 -2z"/>
<path d="M6435 2910 c-3 -6 1 -7 9 -4 18 7 21 14 7 14 -6 0 -13 -4 -16 -10z"/>
<path d="M80 2895 c7 -8 16 -15 21 -15 5 0 9 7 9 15 0 9 -9 15 -21 15 -18 0
-19 -2 -9 -15z"/>
<path d="M130 2893 c0 -9 6 -13 14 -10 7 3 19 0 26 -6 10 -9 11 -9 5 2 -6 11
-3 13 14 8 14 -3 21 -1 18 6 -2 6 -20 12 -40 13 -27 2 -37 -2 -37 -13z"/>
<path d="M1811 2874 c0 -11 3 -14 6 -6 3 7 2 16 -1 19 -3 4 -6 -2 -5 -13z"/>
<path d="M380 2872 c0 -5 7 -9 15 -9 8 0 12 4 9 9 -3 4 -9 8 -15 8 -5 0 -9 -4
-9 -8z"/>
<path d="M118 2863 c7 -3 16 -2 19 1 4 3 -2 6 -13 5 -11 0 -14 -3 -6 -6z"/>
<path d="M492 2840 c-13 -21 -6 -26 15 -12 7 4 9 13 5 19 -6 9 -11 6 -20 -7z"/>
<path d="M290 2840 c0 -5 5 -10 11 -10 5 0 7 5 4 10 -3 6 -8 10 -11 10 -2 0
-4 -4 -4 -10z"/>
<path d="M195 2820 c-3 -5 -1 -10 4 -10 6 0 11 5 11 10 0 6 -2 10 -4 10 -3 0
-8 -4 -11 -10z"/>
<path d="M160 2785 c0 -8 4 -15 10 -15 5 0 7 7 4 15 -4 8 -8 15 -10 15 -2 0
-4 -7 -4 -15z"/>
<path d="M200 2791 c0 -5 5 -13 10 -16 6 -3 10 -2 10 4 0 5 -4 13 -10 16 -5 3
-10 2 -10 -4z"/>
<path d="M290 2790 c0 -6 7 -10 15 -10 8 0 15 2 15 4 0 2 -7 6 -15 10 -8 3
-15 1 -15 -4z"/>
<path d="M185 2750 c3 -5 11 -10 16 -10 6 0 7 5 4 10 -3 6 -11 10 -16 10 -6 0
-7 -4 -4 -10z"/>
<path d="M2887 2449 c7 -7 15 -10 18 -7 3 3 -2 9 -12 12 -14 6 -15 5 -6 -5z"/>
<path d="M2819 2413 c-13 -15 -12 -15 8 -5 17 9 22 9 27 -3 7 -19 42 -19 50 0
3 8 1 15 -4 15 -6 0 -10 -4 -10 -10 0 -5 -7 -10 -15 -10 -8 0 -15 5 -15 11 0
5 5 7 12 3 7 -4 8 -3 4 4 -10 17 -41 15 -57 -5z"/>
<path d="M497 2406 c-10 -25 -2 -31 25 -18 17 8 19 11 6 11 -9 1 -18 6 -20 13
-3 7 -7 5 -11 -6z"/>
<path d="M563 2403 c-7 -3 -13 -8 -13 -13 0 -10 24 -7 28 4 5 11 -1 14 -15 9z"/>
<path d="M1190 2390 c0 -5 5 -10 10 -10 6 0 10 5 10 10 0 6 -4 10 -10 10 -5 0
-10 -4 -10 -10z"/>
<path d="M2841 2369 c-1 -11 8 -16 29 -16 16 0 27 4 23 10 -3 5 -14 7 -24 4
-10 -3 -20 0 -23 7 -2 6 -5 4 -5 -5z"/>
<path d="M1200 2360 c0 -5 4 -10 9 -10 6 0 13 5 16 10 3 6 -1 10 -9 10 -9 0
-16 -4 -16 -10z"/>
<path d="M906 2334 c-9 -22 3 -32 14 -14 12 19 12 30 1 30 -5 0 -12 -7 -15
-16z"/>
<path d="M2925 2340 c3 -5 8 -10 11 -10 2 0 4 5 4 10 0 6 -5 10 -11 10 -5 0
-7 -4 -4 -10z"/>
<path d="M567 2325 c-8 -18 11 -31 25 -17 11 11 3 32 -12 32 -4 0 -10 -7 -13
-15z"/>
<path d="M1010 2330 c-13 -8 -12 -10 3 -10 9 0 17 5 17 10 0 12 -1 12 -20 0z"/>
<path d="M630 2319 c0 -5 10 -9 22 -9 12 0 18 3 14 7 -10 11 -36 12 -36 2z"/>
<path d="M2895 2320 c-3 -5 -2 -10 4 -10 5 0 13 5 16 10 3 6 2 10 -4 10 -5 0
-13 -4 -16 -10z"/>
<path d="M7870 2320 c0 -5 5 -10 10 -10 6 0 10 5 10 10 0 6 -4 10 -10 10 -5 0
-10 -4 -10 -10z"/>
<path d="M7907 2309 c4 -15 8 -17 14 -8 8 14 3 29 -11 29 -4 0 -6 -9 -3 -21z"/>
<path d="M2743 2293 c9 -2 17 -9 17 -14 0 -5 5 -9 11 -9 8 0 8 5 -1 15 -7 8
-20 14 -29 14 -13 -1 -13 -2 2 -6z"/>
<path d="M2670 2286 c0 -2 7 -7 16 -10 8 -3 12 -2 9 4 -6 10 -25 14 -25 6z"/>
<path d="M2795 2270 c-3 -5 -1 -10 4 -10 6 0 11 5 11 10 0 6 -2 10 -4 10 -3 0
-8 -4 -11 -10z"/>
<path d="M725 2241 c-3 -5 -1 -12 4 -15 12 -8 41 3 41 15 0 12 -37 12 -45 0z"/>
<path d="M6267 2140 c3 -11 9 -20 15 -20 5 0 4 9 -2 20 -6 11 -12 20 -14 20
-2 0 -2 -9 1 -20z"/>
<path d="M3093 2124 c-3 -8 2 -23 11 -32 15 -15 16 -15 11 -1 -4 10 0 19 12
23 15 6 15 8 3 16 -21 14 -30 12 -37 -6z"/>
<path d="M2300 2081 c0 -6 4 -13 10 -16 6 -3 7 1 4 9 -7 18 -14 21 -14 7z"/>
<path d="M2878 2083 c6 -2 18 -2 25 0 6 3 1 5 -13 5 -14 0 -19 -2 -12 -5z"/>
<path d="M2800 2060 c-13 -8 -13 -10 2 -10 9 0 20 5 23 10 8 13 -5 13 -25 0z"/>
<path d="M7964 2055 c-32 -10 -30 -22 6 -39 8 -3 -11 -4 -42 -2 -36 3 -58 1
-58 -6 0 -5 -7 -8 -15 -4 -9 3 -15 0 -15 -10 0 -8 -8 -18 -17 -21 -10 -4 -25
-15 -35 -25 -12 -14 -17 -16 -21 -6 -3 7 -6 2 -6 -12 0 -26 26 -51 66 -64 18
-6 25 -3 32 17 14 36 70 87 103 94 34 7 41 19 36 60 -3 27 -4 28 -34 18z"/>
<path d="M2204 1969 c-8 -13 19 -21 58 -17 l33 3 -43 11 c-24 7 -44 8 -48 3z"/>
<path d="M7943 1939 c-27 -13 -47 -32 -58 -55 -9 -20 -15 -37 -13 -39 1 -1 22
-12 46 -24 38 -19 43 -20 40 -5 -2 9 3 19 11 22 10 3 13 -2 9 -21 -3 -16 0
-28 8 -31 11 -4 14 13 14 84 0 50 -3 90 -7 90 -5 0 -27 -9 -50 -21z"/>
<path d="M2150 1919 c0 -5 -6 -9 -13 -7 -7 2 -15 -1 -17 -7 -6 -13 80 -18 99
-6 7 5 10 14 6 21 -6 9 -9 9 -15 1 -5 -8 -14 -9 -33 -2 -18 7 -27 7 -27 0z"/>
<path d="M7664 1863 c10 -11 37 -12 30 -2 -3 5 -12 9 -21 9 -9 0 -13 -3 -9 -7z"/>
</g>
</svg>
